<?xml version="1.0" encoding="UTF-8" standalone="no"?>
<svg
   xmlns:dc="http://purl.org/dc/elements/1.1/"
   xmlns:cc="http://creativecommons.org/ns#"
   xmlns:rdf="http://www.w3.org/1999/02/22-rdf-syntax-ns#"
   xmlns:svg="http://www.w3.org/2000/svg"
   xmlns="http://www.w3.org/2000/svg"
   xmlns:sodipodi="http://sodipodi.sourceforge.net/DTD/sodipodi-0.dtd"
   xmlns:inkscape="http://www.inkscape.org/namespaces/inkscape"
   viewBox="0 0 348 348"
   fill="none"
   version="1.1"
   id="svg74"
   sodipodi:docname="Cipher Machine.svg"
   inkscape:version="0.92.4 (5da689c313, 2019-01-14)">
  <metadata
     id="metadata80">
    <rdf:RDF>
      <cc:Work
         rdf:about="">
        <dc:format>image/svg+xml</dc:format>
        <dc:type
           rdf:resource="http://purl.org/dc/dcmitype/StillImage" />
        <dc:title></dc:title>
      </cc:Work>
    </rdf:RDF>
  </metadata>
  <defs
     id="defs78" />
  <sodipodi:namedview
     pagecolor="#ffffff"
     bordercolor="#666666"
     borderopacity="1"
     objecttolerance="10"
     gridtolerance="10"
     guidetolerance="10"
     inkscape:pageopacity="0"
     inkscape:pageshadow="2"
     inkscape:window-width="1920"
     inkscape:window-height="1017"
     id="namedview76"
     showgrid="false"
     inkscape:zoom="0.67816092"
     inkscape:cx="174"
     inkscape:cy="291.9661"
     inkscape:window-x="-8"
     inkscape:window-y="-8"
     inkscape:window-maximized="1"
     inkscape:current-layer="svg74" />
  <path
     d="M5.079 5.776h336.913v337.67H5.08z"
     stroke-width="2"
     stroke="#000"
     id="path60" />
  <path
     d="M282.734 40.554c0-8.376 6.966-15.165 15.56-15.165 4.126 0 8.084 1.597 11.001 4.441 2.918 2.844 4.558 6.702 4.558 10.724 0 8.376-6.966 15.165-15.56 15.165-8.593 0-15.559-6.79-15.559-15.165z"
     stroke-width="2"
     stroke="#000"
     id="path62" />
  <path
     d="M46.197 258.293l-17.61 10.167-17.61-10.167v-20.334l17.61-10.167 17.61 10.167zm35.944-.699l-17.61 10.167-17.61-10.167V237.26l17.61-10.167 17.61 10.167zm35.504 0l-17.61 10.167-17.61-10.167V237.26l17.61-10.167 17.61 10.167zm35.416 0l-17.61 10.167-17.61-10.167V237.26l17.61-10.167 17.61 10.167zm36.033 0l-17.61 10.167-17.61-10.167V237.26l17.61-10.167 17.61 10.167zm36.208 0l-17.61 10.167-17.609-10.167V237.26l17.61-10.167 17.61 10.167zm35.504 0l-17.61 10.167-17.61-10.167V237.26l17.61-10.167 17.61 10.167zm35.416 0l-17.61 10.167-17.61-10.167V237.26l17.61-10.167 17.61 10.167zm36.033 0l-17.61 10.167-17.61-10.167V237.26l17.61-10.167 17.61 10.167zM64.484 289.283l-17.61 10.167-17.609-10.167v-20.334l17.61-10.167 17.61 10.167zm35.945-.499l-17.61 10.167-17.61-10.167V268.45l17.61-10.167 17.61 10.167zm35.504 0l-17.61 10.167-17.61-10.167V268.45l17.61-10.167 17.61 10.167zm35.416 0l-17.61 10.167-17.61-10.167V268.45l17.61-10.167 17.61 10.167zm36.032 0l-17.61 10.167-17.61-10.167V268.45l17.61-10.167 17.61 10.167zm36.209 0l-17.61 10.167-17.61-10.167V268.45l17.61-10.167 17.61 10.167zm35.504 0l-17.61 10.167-17.61-10.167V268.45l17.61-10.167 17.61 10.167zm35.416 0L296.9 298.95l-17.61-10.167V268.45l17.61-10.167 17.61 10.167zm-268.203 32.81l-17.61 10.167-17.609-10.167V301.26l17.61-10.167 17.61 10.167zm35.945-1.299l-17.61 10.167-17.61-10.167V299.96l17.61-10.167 17.61 10.167zm35.504 0l-17.61 10.167-17.61-10.167V299.96l17.61-10.167 17.61 10.167zm35.416 0l-17.61 10.167-17.61-10.167V299.96l17.61-10.167 17.61 10.167zm36.032 0l-17.61 10.167-17.61-10.167V299.96l17.61-10.167 17.61 10.167zm36.209 0l-17.61 10.167-17.61-10.167V299.96l17.61-10.167 17.61 10.167zm35.504 0l-17.61 10.167-17.61-10.167V299.96l17.61-10.167 17.61 10.167zm35.415 0l-17.61 10.167-17.609-10.167V299.96l17.61-10.167 17.61 10.167zm36.033 0l-17.61 10.167-17.61-10.167V299.96l17.61-10.167 17.61 10.167z"
     fill="#000"
     id="path70" />
  <rect
     style="fill:#000000;fill-opacity:1;stroke:none;stroke-width:11.04848289;stroke-miterlimit:4;stroke-dasharray:none;stroke-opacity:1"
     id="rect3814"
     width="160"
     height="44.237289"
     x="16.220339"
     y="19.169491" />
  <rect
     style="fill:#000000;fill-opacity:1;stroke:none;stroke-width:11.04848289;stroke-miterlimit:4;stroke-dasharray:none;stroke-opacity:1"
     id="rect3814-6"
     width="160"
     height="44.237289"
     x="16.219999"
     y="69.169708" />
  <rect
     style="fill:#000000;fill-opacity:1;stroke:none;stroke-width:11.04848289;stroke-miterlimit:4;stroke-dasharray:none;stroke-opacity:1"
     id="rect3814-6-4"
     width="160"
     height="44.237289"
     x="16.219999"
     y="119.16971" />
  <rect
     style="fill:#000000;fill-opacity:1;stroke:none;stroke-width:11.04848289;stroke-miterlimit:4;stroke-dasharray:none;stroke-opacity:1"
     id="rect3814-6-4-2"
     width="160"
     height="44.237289"
     x="16.219999"
     y="169.16971" />
  <rect
     style="fill:#000000;fill-opacity:1;stroke:none;stroke-width:6.76578617;stroke-miterlimit:4;stroke-dasharray:none;stroke-opacity:1"
     id="rect3814-5"
     width="60"
     height="44.237289"
     x="185"
     y="19.16971" />
  <rect
     style="fill:#000000;fill-opacity:1;stroke:none;stroke-width:6.76578617;stroke-miterlimit:4;stroke-dasharray:none;stroke-opacity:1"
     id="rect3814-5-5"
     width="60"
     height="44.237289"
     x="185"
     y="69.169708" />
  <rect
     style="fill:#000000;fill-opacity:1;stroke:none;stroke-width:6.76578617;stroke-miterlimit:4;stroke-dasharray:none;stroke-opacity:1"
     id="rect3814-5-5-9"
     width="60"
     height="44.237289"
     x="185"
     y="119.16971" />
  <rect
     style="fill:#000000;fill-opacity:1;stroke:none;stroke-width:6.76578617;stroke-miterlimit:4;stroke-dasharray:none;stroke-opacity:1"
     id="rect3814-5-5-9-9"
     width="60"
     height="44.237289"
     x="185"
     y="169.16971" />
  <rect
     style="fill:#000000;fill-opacity:1;stroke:none;stroke-width:12;stroke-miterlimit:4;stroke-dasharray:none;stroke-opacity:1"
     id="rect3974"
     width="38.338982"
     height="38.338982"
     x="252"
     y="109.11864" />
  <rect
     style="fill:#000000;fill-opacity:1;stroke:none;stroke-width:12;stroke-miterlimit:4;stroke-dasharray:none;stroke-opacity:1"
     id="rect3974-1"
     width="38.338982"
     height="38.338982"
     x="297"
     y="109.11864" />
  <rect
     style="fill:#000000;fill-opacity:1;stroke:none;stroke-width:12.10148335;stroke-miterlimit:4;stroke-dasharray:none;stroke-opacity:1"
     id="rect3991"
     width="75"
     height="60"
     x="255"
     y="153.7" />
</svg>
